<svg xmlns="http://www.w3.org/2000/svg" width="414" height="818" viewBox="0 0 414 818" font-family="ui-monospace, SFMono-Regular, Menlo, Consolas, monospace" font-size="14.5">
<rect width="414" height="818" rx="10" fill="#1e1e2e"/>
<circle cx="24" cy="16" r="5.5" fill="#f38ba8"/>
<circle cx="42" cy="16" r="5.5" fill="#f9e2af"/>
<circle cx="60" cy="16" r="5.5" fill="#a6e3a1"/>
<text x="35.2" y="59" xml:space="preserve" fill="#94e2d5" font-weight="bold">B</text>
<text x="43.8" y="59" xml:space="preserve" fill="#91d2e2" font-weight="bold">h</text>
<text x="52.4" y="59" xml:space="preserve" fill="#8dc1ef" font-weight="bold">o</text>
<text x="61.0" y="59" xml:space="preserve" fill="#8eb3fa" font-weight="bold">t</text>
<text x="69.6" y="59" xml:space="preserve" fill="#a6aef9" font-weight="bold">e </text>
<text x="86.8" y="59" xml:space="preserve" fill="#d2abf5" font-weight="bold">v</text>
<text x="95.4" y="59" xml:space="preserve" fill="#e1b5ef" font-weight="bold">0</text>
<text x="104.0" y="59" xml:space="preserve" fill="#f0bfe9" font-weight="bold">.</text>
<text x="112.6" y="59" xml:space="preserve" fill="#f6bece" font-weight="bold">5</text>
<text x="121.2" y="59" xml:space="preserve" fill="#f8b9ab" font-weight="bold">.</text>
<text x="129.8" y="59" xml:space="preserve" fill="#fab387" font-weight="bold">8</text>
<text x="138.4" y="59" xml:space="preserve" fill="#6c7086"> - Herd Management</text>
<text x="35.2" y="78" xml:space="preserve" fill="#6c7086">─────────────────────────────────────────</text>
<text x="35.2" y="116" xml:space="preserve" fill="#89b4fa">REVIEW</text>
<rect x="18.0" y="121" width="17.2" height="19" fill="#313244"/>
<rect x="35.2" y="121" width="283.8" height="19" fill="#313244"/>
<rect x="319.0" y="121" width="77.4" height="19" fill="#313244"/>
<text x="35.2" y="135" xml:space="preserve" fill="#cdd6f4" font-weight="bold">Review: cache headers for /assets</text>
<rect x="18.0" y="140" width="17.2" height="19" fill="#313244"/>
<rect x="35.2" y="140" width="215.0" height="19" fill="#313244"/>
<rect x="250.2" y="140" width="146.2" height="19" fill="#313244"/>
<text x="35.2" y="154" xml:space="preserve" fill="#f5f7ff" font-style="italic">PR #412, ready for a look</text>
<rect x="18.0" y="159" width="17.2" height="19" fill="#313244"/>
<rect x="35.2" y="159" width="17.2" height="19" fill="#313244"/>
<rect x="52.4" y="159" width="137.6" height="19" fill="#313244"/>
<rect x="190.0" y="159" width="94.6" height="19" fill="#313244"/>
<rect x="284.6" y="159" width="111.8" height="19" fill="#313244"/>
<text x="35.2" y="173" xml:space="preserve" fill="#bac2de">∟ </text>
<text x="52.4" y="173" xml:space="preserve" fill="#89b4fa">ready for review</text>
<text x="190.0" y="173" xml:space="preserve" fill="#bac2de"> · just now</text>
<text x="35.2" y="230" xml:space="preserve" fill="#d97757">NOW</text>
<text x="35.2" y="249" xml:space="preserve" fill="#a6adc8" font-weight="bold">Checkout: retry failed payments</text>
<text x="35.2" y="268" xml:space="preserve" fill="#cdd6f4" font-style="italic">Stripe webhooks time out under load</text>
<text x="35.2" y="287" xml:space="preserve" fill="#6c7086">∟ just now</text>
<text x="35.2" y="344" xml:space="preserve" fill="#94e2d5">NEXT</text>
<text x="35.2" y="363" xml:space="preserve" fill="#a6adc8" font-weight="bold">Release notes for 2.4</text>
<text x="35.2" y="382" xml:space="preserve" fill="#6c7086">∟ just now</text>
<text x="35.2" y="439" xml:space="preserve" fill="#f9e2af">WAITING</text>
<text x="35.2" y="458" xml:space="preserve" fill="#a6adc8" font-weight="bold">Staging deploy of the API</text>
<text x="35.2" y="477" xml:space="preserve" fill="#cdd6f4" font-style="italic">then run the e2e suite against staging</text>
<text x="35.2" y="496" xml:space="preserve" fill="#6c7086">∟ </text>
<text x="52.4" y="496" xml:space="preserve" fill="#89b4fa">for DevOps</text>
<text x="138.4" y="496" xml:space="preserve" fill="#6c7086"> · just now</text>
<text x="35.2" y="534" xml:space="preserve" fill="#45475a">┈┈</text>
<text x="61.0" y="534" xml:space="preserve" fill="#6c7086">Done</text>
<text x="104.0" y="534" xml:space="preserve" fill="#45475a">┈┈┈┈┈┈┈┈┈┈┈┈┈┈┈┈┈┈┈┈┈┈┈┈┈┈┈┈┈┈┈┈┈</text>
<text x="35.2" y="553" xml:space="preserve" fill="#a6e3a1">✓</text>
<text x="52.4" y="553" xml:space="preserve" fill="#6c7086" font-weight="bold">Fix flaky login test</text>
<text x="319.0" y="553" xml:space="preserve" fill="#6c7086">just now</text>
<text x="35.2" y="572" xml:space="preserve" fill="#a6e3a1">✓</text>
<text x="52.4" y="572" xml:space="preserve" fill="#6c7086" font-weight="bold">Rename the export job</text>
<text x="319.0" y="572" xml:space="preserve" fill="#6c7086">just now</text>
<text x="35.2" y="591" xml:space="preserve" fill="#6c7086">────────────────── ═══ ──────────────────</text>
<text x="35.2" y="610" xml:space="preserve" fill="#45475a">┈┈</text>
<text x="61.0" y="610" xml:space="preserve" fill="#cba6f7" font-weight="bold">API</text>
<text x="95.4" y="610" xml:space="preserve" fill="#45475a">┈┈┈┈┈┈┈┈┈┈┈┈┈┈┈┈┈┈┈┈┈┈┈┈┈┈┈┈┈┈┈┈┈┈</text>
<text x="35.2" y="629" xml:space="preserve" fill="#d97757">✶</text>
<text x="52.4" y="629" xml:space="preserve" fill="#d97757">api</text>
<text x="224.4" y="629" xml:space="preserve" fill="#6c7086">○</text>
<text x="241.6" y="629" xml:space="preserve" fill="#6c7086">api-wt2</text>
<text x="35.2" y="667" xml:space="preserve" fill="#45475a">┈┈</text>
<text x="61.0" y="667" xml:space="preserve" fill="#94e2d5" font-weight="bold">Shop</text>
<text x="104.0" y="667" xml:space="preserve" fill="#45475a">┈┈┈┈┈┈┈┈┈┈┈┈┈┈┈┈┈┈┈┈┈┈┈┈┈┈┈┈┈┈┈┈┈</text>
<text x="35.2" y="686" xml:space="preserve" fill="#d97757">✶</text>
<text x="52.4" y="686" xml:space="preserve" fill="#d97757">shop</text>
<text x="224.4" y="686" xml:space="preserve" fill="#f38ba8">◉</text>
<text x="241.6" y="686" xml:space="preserve" fill="#f38ba8">shop-wt1</text>
<text x="35.2" y="724" xml:space="preserve" fill="#45475a">┈┈</text>
<text x="61.0" y="724" xml:space="preserve" fill="#6c7086" font-weight="bold">no project</text>
<text x="155.6" y="724" xml:space="preserve" fill="#45475a">┈┈┈┈┈┈┈┈┈┈┈┈┈┈┈┈┈┈┈┈┈┈┈┈┈┈┈</text>
<text x="35.2" y="743" xml:space="preserve" fill="#6c7086">○</text>
<text x="52.4" y="743" xml:space="preserve" fill="#6c7086">notes</text>
<text x="35.2" y="762" xml:space="preserve" fill="#6c7086">─────────────────────────────────────────</text>
<text x="35.2" y="781" xml:space="preserve" fill="#6c7086">↑↓ move · , settings</text>
</svg>
